<svg xmlns="http://www.w3.org/2000/svg" viewBox="113.84 194.14 822.96 624.34">
  <path d="M572.141 413.82C558.832 427.129 546.891 436.344 535.629 441.461 521.977 447.945 505.598 451.016 486.488 450.676 467.035 450.332 451.68 439.754 440.078 419.621 428.816 399.145 423.016 372.527 423.016 340.109 423.016 266.742 445.195 229.203 489.219 227.156 530.168 225.449 545.863 243.535 548.938 282.781H559.172V229.203C547.57 224.766 539.383 222.039 534.262 221.016 522.66 218.625 507.305 217.262 488.195 217.262 458.848 217.262 434.277 228.18 414.484 250.359 394.008 273.227 383.77 303.254 383.43 340.109 383.09 373.895 393.328 402.898 413.801 427.129 434.277 451.016 459.188 462.961 488.195 462.961 508.328 462.961 524.707 459.891 537.676 454.086 552.008 447.605 564.977 436 576.918 419.281ZM572.141 413.82" fill="#37342f"/>
  <path d="M675.578 507.504H645.586V305.297H675.578V295.297H585.922V305.297H616.238V394.949H517.23V305.297H547.223V295.297H458.211V305.297H488.527V507.504H458.211V517.5H547.223V507.504H517.23V406.238H616.238V507.504H585.922V517.5H675.578ZM675.578 507.504" fill="#37342f"/>
  <path d="M183.375 654.727C180.625 657.477 178.156 659.379 175.832 660.438 173.012 661.777 169.629 662.41 165.68 662.34 161.66 662.27 158.488 660.086 156.09 655.926 153.766 651.695 152.566 646.195 152.566 639.496 152.566 624.34 157.148 616.586 166.242 616.164 174.703 615.809 177.945 619.547 178.582 627.652H180.695V616.586C178.301 615.668 176.605 615.105 175.551 614.895 173.152 614.398 169.98 614.117 166.031 614.117 159.969 614.117 154.895 616.375 150.805 620.957 146.574 625.68 144.461 631.883 144.387 639.496 144.316 646.477 146.434 652.469 150.664 657.477 154.895 662.41 160.039 664.879 166.031 664.879 170.191 664.879 173.574 664.242 176.254 663.047 179.215 661.707 181.895 659.309 184.363 655.855ZM227.363 661.566H220.809V617.359H227.363V615.176H207.199V617.359H213.828V661.566H207.199V663.75H227.363ZM294.547 615.176H252.105L251.965 629.488H254.012C254.434 625.328 255.562 622.297 257.324 620.535 259.086 618.77 262.328 617.715 266.91 617.504L270.086 617.359V661.566H263.527V663.75H283.125V661.566H276.5V617.359L279.742 617.504C284.324 617.715 287.566 618.77 289.402 620.676 291.234 622.578 292.293 625.469 292.574 629.488H294.688ZM362.082 615.176H346.645L346.574 617.504C348.898 617.43 350.309 617.574 350.664 617.926 351.438 618.559 351.789 619.125 351.789 619.688 351.789 620.887 351.086 622.789 349.676 625.258L341.637 640.977C337.41 633.152 333.18 625.258 328.879 617.359H334.094V615.176H315.695V617.359H321.051L336.562 644.645V661.637L330.078 661.566V663.75L349.957 663.82V661.566L343.191 661.637V644.293L353.41 624.48C354.75 621.66 355.879 619.758 356.938 618.77 357.711 617.996 359.406 617.715 362.152 617.785ZM476.289 661.566H469.73V617.359H476.289V615.176H456.688V617.359H463.316V636.961H441.672V617.359H448.227V615.176H428.77V617.359H435.398V661.566H428.77V663.75H448.227V661.566H441.672V639.426H463.316V661.566H456.688V663.75H476.289ZM544.598 639.711C544.598 631.883 542.695 625.609 538.816 620.957 535.012 616.234 529.793 613.906 523.238 613.906 517.105 613.906 512.027 616.164 508.008 620.746 503.852 625.539 501.734 631.742 501.664 639.285 501.594 646.336 503.637 652.328 507.867 657.336 512.168 662.27 517.246 664.738 523.238 664.738 529.371 664.738 534.445 662.34 538.465 657.477 542.555 652.609 544.598 646.688 544.598 639.711ZM536.773 639.57C536.773 646.336 535.715 651.695 533.531 655.715 531.203 660.086 527.82 662.27 523.449 662.27 514.145 662.27 509.488 654.586 509.488 639.285 509.488 631.953 510.406 626.387 512.309 622.648 514.566 618.277 518.23 616.094 523.238 616.094 527.961 616.094 531.484 618.418 533.812 623 535.785 626.949 536.773 632.449 536.773 639.57ZM601.844 648.238C601.844 640.766 596.555 636.465 586.121 635.34 578.648 634.562 574.91 631.461 574.84 626.102 574.77 620.109 578.082 617.008 584.922 616.867 591.902 616.797 595.355 619.617 595.992 626.668H598.105V614.047H596.133C595.922 614.754 595.426 615.105 594.723 615.105 593.242 615.105 590.141 613.906 586.543 613.906 581.891 613.906 577.941 615.035 574.699 617.289 570.891 619.898 568.988 623.777 568.988 628.641 568.988 635.832 573.996 639.992 584.004 641.191 587.672 641.613 590.562 642.602 592.676 644.363 594.934 646.336 596.062 648.805 596.062 651.906 595.992 654.797 594.793 657.121 592.324 658.887 589.926 660.508 587.035 661.422 583.793 661.492 580.973 661.566 576.957 660.367 575.121 658.887 573.219 657.266 572.09 654.656 571.809 650.848H569.695L569.625 662.059C573.926 663.68 577.801 664.453 581.113 664.453 586.824 664.453 591.551 663.188 595.285 660.719 599.656 657.828 601.844 653.668 601.844 648.238ZM667.402 615.176H624.965L624.82 629.488H626.867C627.289 625.328 628.418 622.297 630.18 620.535 631.941 618.77 635.184 617.715 639.77 617.504L642.941 617.359V661.566H636.383V663.75H655.984V661.566H649.355V617.359L652.598 617.504C657.18 617.715 660.426 618.77 662.258 620.676 664.09 622.578 665.148 625.469 665.43 629.488H667.547ZM711.605 661.566H705.047V617.359H711.605V615.176H691.441V617.359H698.07V661.566H691.441V663.75H711.605ZM783.441 615.176H767.859V617.359C770.469 617.359 772.02 617.574 772.512 617.996 773.852 619.266 774.488 621.098 774.488 623.496V651.484L751.152 615.176H737.051V617.359H741C742.27 617.359 742.973 617.926 743.113 618.984V655.5C743.113 657.969 742.48 659.801 741.141 660.93 740.648 661.352 739.098 661.566 736.488 661.566V663.75H752.066V661.566C749.32 661.566 747.77 661.352 747.273 660.859 746.074 659.73 745.512 657.969 745.512 655.5V618.984L775.332 664.949H776.953L776.812 623.496C776.812 621.098 777.449 619.266 778.648 618.066 779.141 617.574 780.691 617.359 783.441 617.359ZM849.566 644.645H833.211V646.902H841.176V655.289C841.176 656.559 841.105 657.547 840.824 658.109 840.613 658.887 839.273 659.801 836.805 660.648 834.129 661.707 831.59 662.27 829.121 662.199 825.102 662.129 821.93 660.012 819.535 655.855 817.137 651.625 815.938 646.195 815.938 639.426 815.938 624.621 820.52 616.867 829.688 616.305 837.863 615.879 841.316 619.758 841.953 627.797H844.066V616.727C841.391 615.668 839.625 615.105 838.852 614.965 836.523 614.398 833.352 614.117 829.332 614.117 823.34 614.117 818.336 616.375 814.176 620.957 810.016 625.75 807.902 631.812 807.832 639.426 807.762 646.406 809.805 652.398 813.965 657.406 818.336 662.27 823.34 664.738 829.332 664.738 833.492 664.738 836.949 664.312 839.836 663.609 842.305 662.832 844.703 661.988 847.168 661.281V646.902H849.566ZM906.316 648.238C906.316 640.766 901.027 636.465 890.594 635.34 883.121 634.562 879.387 631.461 879.316 626.102 879.246 620.109 882.559 617.008 889.395 616.867 896.375 616.797 899.832 619.617 900.465 626.668H902.578V614.047H900.605C900.395 614.754 899.902 615.105 899.195 615.105 897.715 615.105 894.613 613.906 891.02 613.906 886.363 613.906 882.418 615.035 879.172 617.289 875.367 619.898 873.465 623.777 873.465 628.641 873.465 635.832 878.469 639.992 888.48 641.191 892.145 641.613 895.035 642.602 897.152 644.363 899.406 646.336 900.535 648.805 900.535 651.906 900.465 654.797 899.266 657.121 896.797 658.887 894.402 660.508 891.512 661.422 888.27 661.492 885.449 661.566 881.43 660.367 879.598 658.887 877.691 657.266 876.566 654.656 876.285 650.848H874.168L874.098 662.059C878.398 663.68 882.277 664.453 885.59 664.453 891.301 664.453 896.023 663.188 899.762 660.719 904.129 657.828 906.316 653.668 906.316 648.238ZM906.316 648.238" fill="#37342f"/>
  <path d="M465 735H585" fill="none" stroke="#ae8d62" stroke-width="2.1" stroke-linecap="butt" stroke-linejoin="miter" stroke-miterlimit="4"/>
  <path d="M255.078 793.465V787.145H250.477V786.152H256.277V794.047C255.414 794.473 254.465 794.789 253.434 795 252.402 795.219 251.301 795.336 250.125 795.352 247.516 795.352 245.477 794.523 244.008 792.875 242.535 791.23 241.797 788.938 241.797 785.996 241.797 783.047 242.535 780.746 244.008 779.098 245.477 777.453 247.516 776.629 250.125 776.629 251.203 776.629 252.223 776.738 253.184 776.957 254.148 777.191 255.035 777.535 255.84 777.984V779.156C255.027 778.707 254.156 778.363 253.23 778.129 252.312 777.902 251.344 777.793 250.328 777.793 247.906 777.793 246.082 778.48 244.867 779.859 243.652 781.227 243.043 783.273 243.043 785.996 243.043 788.762 243.652 790.84 244.867 792.234 246.082 793.633 247.906 794.336 250.328 794.336 251.32 794.336 252.207 794.266 252.988 794.129 253.762 793.984 254.457 793.762 255.078 793.465ZM271.426 776.957H272.637V787.918C272.637 790.207 273.039 791.855 273.844 792.859 274.641 793.859 275.934 794.359 277.723 794.359 279.504 794.359 280.793 793.859 281.59 792.859 282.398 791.855 282.801 790.207 282.801 787.918V776.957H284.008V788.219C284.008 790.574 283.477 792.348 282.414 793.551 281.355 794.75 279.793 795.352 277.723 795.352 275.645 795.352 274.078 794.75 273.023 793.551 271.961 792.348 271.426 790.574 271.426 788.219ZM299.535 776.957H309.734V777.961H300.766V784.887H309.359V785.863H300.766V794.02H309.953V795H299.535ZM335.012 777.863V779C334.223 778.605 333.352 778.254 332.391 777.949 331.762 777.746 330.969 777.637 330.012 777.621 328.594 777.598 327.441 777.91 326.555 778.562 325.75 779.16 325.344 780.184 325.344 781.633 325.344 782.527 325.652 783.238 326.266 783.762 326.918 784.316 327.898 784.766 329.211 785.102L330.652 785.477C331.941 785.816 332.934 786.219 333.637 786.688 334.949 787.578 335.605 788.703 335.605 790.059 335.605 792.016 335.031 793.371 333.879 794.129 332.621 794.945 331.332 795.352 330.012 795.352 328.633 795.352 327.398 795.16 326.312 794.781 325.629 794.508 324.91 794.129 324.16 793.645V792.461C325.289 793.129 326.078 793.559 326.531 793.742 327.535 794.152 328.473 794.359 329.332 794.359 330.809 794.359 332.031 794.031 333.008 793.379 333.926 792.77 334.387 791.691 334.387 790.152 334.387 789.25 334.102 788.543 333.539 788.027 332.727 787.277 331.672 786.746 330.371 786.434L328.922 786.082C327.762 785.801 326.777 785.406 325.961 784.898 324.73 784.125 324.113 783.066 324.113 781.73 324.113 780.062 324.617 778.781 325.625 777.887 326.559 777.059 327.977 776.641 329.879 776.629 330.996 776.629 331.855 776.727 332.453 776.922 333.98 777.422 334.836 777.734 335.012 777.863ZM347.918 776.957H361.949V777.949H355.543V795H354.324V777.949H347.918ZM392.867 776.957H394.09V784.887H404.18V776.957H405.402V795H404.18V785.863H394.09V795H392.867ZM432.676 779.832C431.512 778.328 429.945 777.574 427.973 777.574 426 777.574 424.43 778.328 423.258 779.832 422.098 781.34 421.52 783.395 421.52 785.996 421.52 788.582 422.098 790.629 423.258 792.137 424.43 793.641 426 794.395 427.973 794.395 429.945 794.395 431.512 793.641 432.676 792.137 433.824 790.629 434.402 788.582 434.402 785.996 434.402 783.395 433.824 781.34 432.676 779.832ZM427.973 776.629C430.309 776.629 432.18 777.477 433.582 779.168 434.98 780.867 435.684 783.145 435.684 785.996 435.684 788.84 434.98 791.109 433.582 792.801 432.18 794.5 430.309 795.352 427.973 795.352 425.629 795.352 423.75 794.504 422.34 792.812 420.938 791.121 420.238 788.848 420.238 785.996 420.238 783.145 420.938 780.867 422.34 779.168 423.75 777.477 425.629 776.629 427.973 776.629ZM450.219 776.957H451.426V787.918C451.426 790.207 451.828 791.855 452.637 792.859 453.434 793.859 454.727 794.359 456.516 794.359 458.297 794.359 459.586 793.859 460.383 792.859 461.188 791.855 461.59 790.207 461.59 787.918V776.957H462.801V788.219C462.801 790.574 462.266 792.348 461.203 793.551 460.148 794.75 458.586 795.352 456.516 795.352 454.438 795.352 452.871 794.75 451.812 793.551 450.75 792.348 450.219 790.574 450.219 788.219ZM488.418 777.863V779C487.629 778.605 486.754 778.254 485.793 777.949 485.164 777.746 484.371 777.637 483.414 777.621 481.996 777.598 480.844 777.91 479.957 778.562 479.152 779.16 478.75 780.184 478.75 781.633 478.75 782.527 479.055 783.238 479.668 783.762 480.32 784.316 481.301 784.766 482.617 785.102L484.055 785.477C485.344 785.816 486.34 786.219 487.039 786.688 488.352 787.578 489.008 788.703 489.008 790.059 489.008 792.016 488.434 793.371 487.281 794.129 486.023 794.945 484.734 795.352 483.414 795.352 482.035 795.352 480.805 795.16 479.715 794.781 479.031 794.508 478.312 794.129 477.562 793.645V792.461C478.691 793.129 479.48 793.559 479.934 793.742 480.941 794.152 481.875 794.359 482.738 794.359 484.211 794.359 485.438 794.031 486.41 793.379 487.328 792.77 487.789 791.691 487.789 790.152 487.789 789.25 487.508 788.543 486.941 788.027 486.129 787.277 485.074 786.746 483.777 786.434L482.324 786.082C481.164 785.801 480.18 785.406 479.363 784.898 478.133 784.125 477.516 783.066 477.516 781.73 477.516 780.062 478.02 778.781 479.027 777.887 479.961 777.059 481.379 776.641 483.281 776.629 484.398 776.629 485.258 776.727 485.855 776.922 487.387 777.422 488.238 777.734 488.418 777.863ZM503.785 776.957H513.984V777.961H505.02V784.887H513.609V785.863H505.02V794.02H514.203V795H503.785ZM547.758 776.957H549.438L554.453 790.336 559.492 776.957H561.16V795H559.926V779.156L555.285 791.531H553.621L548.992 779.156V795H547.758ZM583.285 778.176 579.418 788.328H587.094ZM582.512 776.957H584.094L590.996 795H589.617L587.465 789.332H579.043L576.906 795H575.625ZM604.566 776.957H606.352L615.102 793.453V776.957H616.312V795H614.594L605.797 778.395V795H604.566ZM638.23 778.176 634.363 788.328H642.039ZM637.457 776.957H639.039L645.941 795H644.562L642.41 789.332H633.988L631.852 795H630.57ZM671.426 793.465V787.145H666.82V786.152H672.621V794.047C671.758 794.473 670.812 794.789 669.781 795 668.75 795.219 667.648 795.336 666.469 795.352 663.859 795.352 661.82 794.523 660.355 792.875 658.883 791.23 658.145 788.938 658.145 785.996 658.145 783.047 658.883 780.746 660.355 779.098 661.82 777.453 663.859 776.629 666.469 776.629 667.551 776.629 668.57 776.738 669.527 776.957 670.496 777.191 671.383 777.535 672.188 777.984V779.156C671.371 778.707 670.504 778.363 669.578 778.129 668.656 777.902 667.691 777.793 666.676 777.793 664.25 777.793 662.43 778.48 661.215 779.859 659.996 781.227 659.391 783.273 659.391 785.996 659.391 788.762 659.996 790.84 661.215 792.234 662.43 793.633 664.25 794.336 666.676 794.336 667.668 794.336 668.555 794.266 669.336 794.129 670.109 793.984 670.805 793.762 671.426 793.465ZM688.016 776.957H698.215V777.961H689.25V784.887H697.84V785.863H689.25V794.02H698.434V795H688.016ZM714.371 776.957H716.051L721.066 790.336 726.105 776.957H727.773V795H726.539V779.156L721.898 791.531H720.23L715.602 779.156V795H714.371ZM744.508 776.957H754.707V777.961H745.738V784.887H754.332V785.863H745.738V794.02H754.926V795H744.508ZM769.883 776.957H771.672L780.422 793.453V776.957H781.629V795H779.914L771.117 778.395V795H769.883ZM795.695 776.957H809.727V777.949H803.32V795H802.098V777.949H795.695ZM795.695 776.957" fill="#9f886b"/>
</svg>
